<?xml version="1.0" encoding="UTF-8"?>
<svg id="Layer_1" data-name="Layer 1" xmlns="http://www.w3.org/2000/svg" viewBox="0 0 326.72 142.44">
  <defs>
    <style>
      .cls-1 {
        fill: #fbff4f;
        stroke-width: 0px;
      }
    </style>
  </defs>
  <g>
    <g>
      <path class="cls-1" d="m29.15,25.12c1.95,0,3.54,1.59,3.54,3.54v31.16h9.85c1.65,0,3.01,1.36,3.01,3.01s-1.36,3.01-3.01,3.01h-13.39c-1.95,0-3.54-1.59-3.54-3.54V28.66c0-1.95,1.59-3.54,3.54-3.54Z"/>
      <path class="cls-1" d="m57.06,28.07c.35-1.65,1.71-2.95,3.48-2.95s3.13,1.24,3.48,2.89l9.21,33.81c.53,1.89-.59,3.84-2.48,4.37-1.89.47-3.89-.65-4.37-2.54l-.83-3.6h-10.03l-.83,3.6c-.47,1.89-2.48,3.01-4.37,2.54-1.89-.53-3.01-2.48-2.48-4.37l9.21-33.75Zm-.18,25.96h7.26l-3.54-15.64h-.12l-3.6,15.64Z"/>
      <path class="cls-1" d="m95.7,25.12c1.95,0,3.54,1.59,3.54,3.54v34.11c0,4.01-5.37,4.96-6.79,1.48l-8.44-20.65-.12.06v19.12c0,1.95-1.59,3.54-3.54,3.54s-3.54-1.59-3.54-3.54V28.66c0-4.01,5.49-4.54,6.9-1.06l8.32,20.36.12-.06v-19.24c0-1.95,1.59-3.54,3.54-3.54Z"/>
      <path class="cls-1" d="m116.59,30.55c-2.71,0-4.42,1.95-4.42,4.42v21.48c0,2.48,1.71,4.43,4.42,4.43s4.43-1.95,4.43-4.43v-7.67h-2.24c-1.65,0-3.01-1.36-3.01-3.01s1.36-3.01,3.01-3.01h5.78c1.95,0,3.54,1.59,3.54,3.54v10.15c0,5.84-5.19,10.44-11.51,10.44s-11.51-4.72-11.51-10.56v-21.24c0-5.84,5.19-10.56,11.51-10.56s11.51,4.6,11.51,10.44c0,1.95-1.59,3.54-3.54,3.54s-3.54-1.59-3.54-3.54c0-2.48-1.71-4.42-4.43-4.42Z"/>
      <path class="cls-1" d="m151.16,65.83h-13.98c-1.95,0-3.54-1.59-3.54-3.54V29.13c0-1.95,1.59-3.54,3.54-3.54h13.98c1.65,0,3.01,1.36,3.01,3.01s-1.36,3.01-3.01,3.01h-10.44v11.09h8.26c1.65,0,3.01,1.36,3.01,3.01s-1.36,3.01-3.01,3.01h-8.26v11.09h10.44c1.65,0,3.01,1.36,3.01,3.01s-1.36,3.01-3.01,3.01Z"/>
      <path class="cls-1" d="m235.3,30.55c-2.71,0-4.42,1.95-4.42,4.42v21.48c0,2.48,1.71,4.43,4.42,4.43s4.43-1.95,4.43-4.43c0-1.95,1.59-3.54,3.54-3.54s3.54,1.59,3.54,3.54c0,5.84-5.19,10.44-11.51,10.44s-11.51-4.72-11.51-10.56v-21.24c0-5.84,5.19-10.56,11.51-10.56s11.51,4.6,11.51,10.44c0,1.95-1.59,3.54-3.54,3.54s-3.54-1.59-3.54-3.54c0-2.48-1.71-4.42-4.43-4.42Z"/>
      <path class="cls-1" d="m251.76,28.66c0-1.95,1.59-3.54,3.54-3.54s3.54,1.59,3.54,3.54v14.1h8.26v-14.1c0-1.95,1.59-3.54,3.54-3.54s3.54,1.59,3.54,3.54v34.11c0,1.95-1.59,3.54-3.54,3.54s-3.54-1.59-3.54-3.54v-13.98h-8.26v13.98c0,1.95-1.59,3.54-3.54,3.54s-3.54-1.59-3.54-3.54V28.66Z"/>
      <path class="cls-1" d="m286.33,31.61h-5.07c-1.65,0-3.01-1.36-3.01-3.01s1.36-3.01,3.01-3.01h17.23c1.65,0,3.01,1.36,3.01,3.01s-1.36,3.01-3.01,3.01h-5.07v31.16c0,1.95-1.59,3.54-3.54,3.54s-3.54-1.59-3.54-3.54v-31.16Z"/>
      <path class="cls-1" d="m186.75,25.16c1.95,0,3.54,1.59,3.54,3.54v34.11c0,4.01-5.37,4.96-6.79,1.48l-8.44-20.65-.12.06v19.12c0,1.95-1.59,3.54-3.54,3.54s-3.54-1.59-3.54-3.54V28.7c0-4.01,5.49-4.54,6.9-1.06l8.32,20.36.12-.06v-19.24c0-1.95,1.59-3.54,3.54-3.54"/>
      <path class="cls-1" d="m203.8,54.08h7.26l-3.54-15.64h-.12l-3.6,15.64Zm.18-25.96c.35-1.65,1.71-2.95,3.48-2.95s3.13,1.24,3.48,2.89l9.21,33.81c.53,1.89-.59,3.84-2.48,4.37-1.89.47-3.89-.65-4.37-2.54l-.83-3.6h-10.03l-.83,3.6c-.47,1.89-2.48,3.01-4.37,2.54-1.89-.53-3.01-2.48-2.48-4.37l9.21-33.75Z"/>
    </g>
    <g>
      <path class="cls-1" d="m56.59,79.72c0-1.95,1.59-3.54,3.54-3.54h13.39c1.65,0,3.01,1.36,3.01,3.01s-1.36,3.01-3.01,3.01h-9.85v11.09h7.67c1.65,0,3.01,1.36,3.01,3.01s-1.36,3.01-3.01,3.01h-7.67v14.04c0,1.95-1.59,3.54-3.54,3.54s-3.54-1.59-3.54-3.54v-33.63Z"/>
      <path class="cls-1" d="m102.97,85.56v21.48c0,5.84-5.19,10.44-11.51,10.44s-11.51-4.6-11.51-10.44v-21.48c0-5.84,5.19-10.44,11.51-10.44s11.51,4.6,11.51,10.44Zm-7.08,0c0-2.48-1.71-4.42-4.43-4.42s-4.42,1.95-4.42,4.42v21.48c0,2.48,1.71,4.43,4.42,4.43s4.43-1.95,4.43-4.43v-21.48Z"/>
      <path class="cls-1" d="m118.95,100.72h-3.01v12.63c0,1.95-1.59,3.54-3.54,3.54s-3.54-1.59-3.54-3.54v-33.63c0-1.95,1.59-3.54,3.54-3.54h5.9c6.9,0,12.98,4.01,12.98,12.27,0,5.07-2.3,8.56-5.67,10.44l5.61,13.22c.83,1.71,0,3.78-1.77,4.48-1.77.77-3.83-.06-4.48-1.77l-6.02-14.1Zm-3.01-18.53v12.51h2.36c2.89,0,5.66-1.53,5.66-6.25s-2.77-6.25-5.66-6.25h-2.36Z"/>
      <path class="cls-1" d="m139.31,103.26c1.95,0,3.6,1.59,3.6,3.54,0,2.6,2.07,4.66,4.66,4.66s4.66-2.07,4.66-4.66c0-11.33-15.93-6.37-15.93-21.6,0-5.67,5.19-10.09,11.39-10.09s11.27,4.42,11.27,10.09c0,1.95-1.65,3.54-3.6,3.54s-3.6-1.59-3.6-3.54c0-2.3-1.53-4.07-4.07-4.07s-4.07,1.77-4.07,4.07c0,10.5,15.93,5.78,15.93,21.6,0,5.96-5.37,10.68-11.98,10.68s-11.86-4.72-11.86-10.68c0-1.95,1.65-3.54,3.6-3.54Z"/>
      <path class="cls-1" d="m175.77,81.13c-2.71,0-4.42,1.95-4.42,4.42v21.48c0,2.48,1.71,4.43,4.42,4.43s4.43-1.95,4.43-4.43c0-1.95,1.59-3.54,3.54-3.54s3.54,1.59,3.54,3.54c0,5.84-5.19,10.44-11.51,10.44s-11.51-4.72-11.51-10.56v-21.24c0-5.84,5.19-10.56,11.51-10.56s11.51,4.6,11.51,10.44c0,1.95-1.59,3.54-3.54,3.54s-3.54-1.59-3.54-3.54c0-2.48-1.71-4.42-4.43-4.42Z"/>
      <path class="cls-1" d="m191.99,79.24c0-1.95,1.59-3.54,3.54-3.54s3.54,1.59,3.54,3.54v14.1h8.26v-14.1c0-1.95,1.59-3.54,3.54-3.54s3.54,1.59,3.54,3.54v34.11c0,1.95-1.59,3.54-3.54,3.54s-3.54-1.59-3.54-3.54v-13.98h-8.26v13.98c0,1.95-1.59,3.54-3.54,3.54s-3.54-1.59-3.54-3.54v-34.11Z"/>
      <path class="cls-1" d="m224.15,75.7c1.95,0,3.54,1.59,3.54,3.54v27.79c0,2.48,1.71,4.43,4.42,4.43s4.43-1.95,4.43-4.43v-27.79c0-1.95,1.59-3.54,3.54-3.54s3.54,1.59,3.54,3.54v27.79c0,5.84-5.19,10.44-11.51,10.44s-11.51-4.6-11.51-10.44v-27.79c0-1.95,1.59-3.54,3.54-3.54Z"/>
      <path class="cls-1" d="m268.69,75.7c1.95,0,3.54,1.59,3.54,3.54v34.11c0,4.01-5.37,4.96-6.79,1.48l-8.44-20.65-.12.06v19.12c0,1.95-1.59,3.54-3.54,3.54s-3.54-1.59-3.54-3.54v-34.11c0-4.01,5.49-4.54,6.9-1.06l8.32,20.36.12-.06v-19.24c0-1.95,1.59-3.54,3.54-3.54Z"/>
      <path class="cls-1" d="m289.64,81.13c-2.71,0-4.42,1.95-4.42,4.42v21.48c0,2.48,1.71,4.43,4.42,4.43s4.43-1.95,4.43-4.43v-7.67h-2.24c-1.65,0-3.01-1.36-3.01-3.01s1.36-3.01,3.01-3.01h5.78c1.95,0,3.54,1.59,3.54,3.54v10.15c0,5.84-5.19,10.44-11.51,10.44s-11.51-4.72-11.51-10.56v-21.24c0-5.84,5.19-10.56,11.51-10.56s11.51,4.6,11.51,10.44c0,1.95-1.59,3.54-3.54,3.54s-3.54-1.59-3.54-3.54c0-2.48-1.71-4.42-4.43-4.42Z"/>
    </g>
    <g>
      <path class="cls-1" d="m25.6,114.51v-3.41c0-4.28,3.13-7.35,10.57-7.35s10.57,3.07,10.57,7.35v3.41c0,1.02-.84,1.86-1.86,1.86h-17.42c-1.02,0-1.86-.84-1.86-1.86Zm3.16-1.86h14.82v-1.55c0-2.17-2.14-3.5-7.41-3.5s-7.41,1.33-7.41,3.5v1.55Z"/>
      <path class="cls-1" d="m46.75,91.94v7.35c0,1.02-.84,1.86-1.86,1.86h-17.42c-1.02,0-1.86-.84-1.86-1.86v-7.35c0-.87.71-1.58,1.58-1.58s1.58.71,1.58,1.58v5.49h5.83v-4.34c0-.87.71-1.58,1.58-1.58s1.58.71,1.58,1.58v4.34h5.83v-5.49c0-.87.71-1.58,1.58-1.58s1.58.71,1.58,1.58Z"/>
      <path class="cls-1" d="m38.5,82.67v1.58h6.64c1.02,0,1.86.84,1.86,1.86s-.84,1.86-1.86,1.86h-17.67c-1.02,0-1.86-.84-1.86-1.86v-3.1c0-3.63,2.11-6.82,6.45-6.82,2.67,0,4.5,1.21,5.49,2.98l6.95-2.95c.9-.43,1.98,0,2.36.93.4.93-.03,2.02-.93,2.36l-7.41,3.16Zm-9.74,1.58h6.57v-1.24c0-1.52-.81-2.98-3.29-2.98s-3.29,1.46-3.29,2.98v1.24Z"/>
    </g>
  </g>
  <path class="cls-1" d="m313.47,7.16c3.36,0,6.09,2.73,6.09,6.09v115.37c0,3.36-2.73,6.09-6.09,6.09H13.28c-3.36,0-6.09-2.73-6.09-6.09V13.25c0-3.36,2.73-6.09,6.09-6.09h300.2M313.47,0H13.28C5.97,0,.03,5.94.03,13.25v115.37c0,7.31,5.94,13.25,13.25,13.25h300.2c7.31,0,13.25-5.94,13.25-13.25V13.25C326.72,5.94,320.78,0,313.47,0h0Z"/>
</svg>